# xmcd CD database file
#
# Track frame offsets:
#	150
#	4730
#	11766
#	24641
#	38199
#	48621
#	59844
#	63866
#	78163
#	95544
#	116139
#	128195
#	140923
#
# Disc length: 2159 seconds
#
# Revision: 0
# Processed by: cddbd v1.5.2PL0 Copyright (c) Steve Scherf et al.
# Submitted via: CDex 1.70beta3
#
DISCID=b8086d0d
DTITLE=下八 - 続秘密の下八
DYEAR=2017
DGENRE=Jazz
TTITLE0=変なおじさん下八
TTITLE1=カッパー警部
TTITLE2=歯ニーサックルローズ
TTITLE3=不思議な007
TTITLE4=駄作
TTITLE5=ドリス
TTITLE6=SHE LOVES オールナイト
TTITLE7=行こうぜ熱海
TTITLE8=黒い関白宣言
TTITLE9=狂ったピエロ
TTITLE10=インディアナ注意事項
TTITLE11=青い大都会
TTITLE12=ファンキー女の港町
EXTD=YEAR: 2017
EXTT0=
EXTT1=
EXTT2=
EXTT3=
EXTT4=
EXTT5=
EXTT6=
EXTT7=
EXTT8=
EXTT9=
EXTT10=
EXTT11=
EXTT12=
PLAYORDER=
